<svg width="45" height="15" viewBox="0 0 45 15" fill="none" xmlns="http://www.w3.org/2000/svg">
<path d="M44.0058 6.5C44.5581 6.5 45.0058 6.94772 45.0058 7.5C45.0058 8.05228 44.5581 8.5 44.0058 8.5V6.5ZM0.28708 8.20711C-0.103445 7.81658 -0.103445 7.18342 0.28708 6.79289L6.65104 0.428932C7.04156 0.0384079 7.67473 0.0384079 8.06525 0.428932C8.45578 0.819456 8.45578 1.45262 8.06525 1.84315L2.4084 7.5L8.06525 13.1569C8.45578 13.5474 8.45578 14.1805 8.06525 14.5711C7.67473 14.9616 7.04156 14.9616 6.65104 14.5711L0.28708 8.20711ZM44.0058 8.5L0.994186 8.5V6.5L44.0058 6.5V8.5Z" fill="black"/>
</svg>
