<?xml version="1.0" standalone="no"?>
<!DOCTYPE svg PUBLIC "-//W3C//DTD SVG 20010904//EN"
 "http://www.w3.org/TR/2001/REC-SVG-20010904/DTD/svg10.dtd">
<svg version="1.0" xmlns="http://www.w3.org/2000/svg"
 width="674.000000pt" height="370.000000pt" viewBox="0 0 674.000000 370.000000"
 preserveAspectRatio="xMidYMid meet">

<g transform="translate(0.000000,370.000000) scale(0.100000,-0.100000)"
fill="#000000" stroke="none">
<path d="M2340 3084 c72 -14 59 -33 -43 -63 -189 -56 -207 -66 -207 -106 0
-30 -45 -73 -91 -87 -21 -6 -48 -20 -60 -31 l-22 -20 37 -19 c40 -20 55 -43
39 -59 -5 -5 -79 -14 -164 -20 -128 -9 -210 -20 -299 -41 -7 -2 -13 12 -14 35
-2 21 0 34 3 29 10 -16 93 38 86 56 -11 29 53 91 88 84 4 -1 7 4 7 12 0 10 7
12 22 8 16 -4 19 -2 13 8 -5 8 -4 11 2 7 6 -4 28 1 49 10 22 9 46 18 55 19 30
6 162 62 178 76 9 8 22 13 29 10 7 -2 12 6 12 22 0 14 9 32 23 41 l22 17 -30
-6 c-16 -3 -61 -8 -100 -12 -38 -3 -106 -15 -150 -25 -102 -24 -176 -24 -256
0 -52 15 -106 20 -283 24 -219 4 -220 4 -243 -19 -13 -13 -23 -30 -23 -39 0
-8 -16 -32 -35 -53 -19 -21 -48 -70 -65 -107 -17 -38 -47 -87 -68 -110 -20
-23 -48 -56 -62 -74 l-25 -33 -197 -2 -197 -2 -29 -40 c-42 -58 -67 -212 -58
-357 6 -103 5 -111 -20 -168 -25 -56 -26 -64 -15 -111 6 -28 33 -103 60 -167
63 -150 74 -189 74 -283 1 -43 2 -78 5 -78 9 0 27 27 29 45 10 102 81 357 97
348 5 -4 7 1 2 12 -8 21 12 55 65 108 22 22 43 36 50 32 13 -9 59 14 59 28 0
6 -8 3 -18 -6 -10 -10 -25 -17 -33 -17 -9 0 -5 8 11 23 14 12 43 43 64 69 21
26 43 45 49 41 5 -3 7 -1 4 4 -4 6 1 17 10 24 15 12 16 12 10 -4 -4 -11 -3
-16 4 -12 6 4 8 14 5 22 -11 29 50 99 116 133 64 32 170 109 243 176 138 126
545 229 830 210 108 -8 239 -29 323 -52 45 -13 52 -19 52 -41 0 -21 -4 -24
-22 -20 -141 35 -213 42 -398 41 -161 0 -212 -4 -293 -22 -140 -31 -289 -83
-406 -141 -55 -28 -105 -51 -111 -51 -6 0 -16 -5 -23 -10 -39 -33 -89 -59
-104 -54 -13 4 -14 3 -5 -3 9 -7 5 -16 -17 -37 -16 -15 -31 -24 -33 -19 -3 4
-4 3 -2 -3 3 -15 -5 -24 -54 -62 -33 -26 -46 -31 -57 -22 -10 9 -15 6 -20 -10
-4 -12 -4 -24 -1 -27 3 -4 6 1 6 10 0 10 5 17 11 17 14 0 14 0 -53 -100 -31
-47 -66 -115 -78 -152 -21 -66 -51 -112 -73 -114 -34 -3 -38 -5 -31 -15 4 -8
9 -7 15 2 4 7 11 10 15 6 4 -4 0 -15 -8 -24 -9 -10 -37 -58 -63 -108 -43 -81
-88 -134 -107 -128 -4 2 -4 -5 -1 -14 4 -11 3 -14 -5 -9 -8 5 -10 2 -6 -8 3
-9 2 -16 -3 -16 -5 0 -9 -8 -9 -17 -1 -10 -3 -24 -5 -32 -4 -14 35 -38 206
-130 39 -20 125 -68 193 -105 67 -38 124 -67 126 -65 2 2 20 32 40 65 201 345
557 610 957 713 116 30 313 55 383 49 l38 -3 -1 -333 c-1 -268 1 -331 12 -320
36 38 328 349 358 382 l36 38 7 597 c4 328 10 624 12 659 5 60 4 62 -21 72
-39 15 -43 13 -60 -27 -34 -81 -84 -110 -215 -123 -81 -9 -86 -11 -114 -45
-16 -20 -44 -42 -62 -50 -44 -18 -50 -36 -30 -85 19 -48 20 -70 4 -70 -13 0
-47 85 -51 125 -1 14 12 26 50 45 28 14 64 39 80 56 24 27 37 32 98 37 100 10
167 45 196 103 24 51 20 59 -33 69 -34 6 -36 5 -43 -23 -14 -66 -86 -99 -238
-109 -78 -5 -104 -10 -119 -25 -10 -10 -18 -13 -18 -8 0 6 -4 10 -10 10 -5 0
-10 -9 -10 -21 0 -11 5 -17 10 -14 6 3 10 -1 10 -10 0 -10 -21 -25 -55 -40
-64 -29 -70 -50 -25 -83 30 -23 41 -64 20 -77 -6 -3 -7 1 -4 9 3 9 1 16 -5 16
-7 0 -14 -7 -17 -15 -4 -8 -12 -15 -20 -15 -19 0 -18 10 3 25 21 16 10 47 -13
38 -11 -4 -15 -3 -10 5 3 6 -3 16 -14 22 -34 18 -21 50 28 75 24 12 51 30 60
39 16 17 15 17 -23 12 -22 -3 -32 -3 -22 0 9 3 15 9 12 13 -2 5 7 6 22 3 17
-3 24 -1 19 6 -7 11 36 56 55 58 5 1 16 2 25 3 9 0 12 6 8 13 -4 7 -3 8 5 4
14 -9 143 19 193 42 21 9 38 23 38 30 0 8 -5 10 -12 6 -9 -5 -9 -2 1 9 11 14
11 17 0 17 -8 0 -48 2 -89 5 -41 2 -64 2 -50 -1z m37 -70 c-3 -3 -12 -4 -19
-1 -8 3 -5 6 6 6 11 1 17 -2 13 -5z m-177 -48 c0 -3 -4 -8 -10 -11 -5 -3 -10
-1 -10 4 0 6 5 11 10 11 6 0 10 -2 10 -4z m-285 -16 c-3 -5 -12 -10 -18 -10
-7 0 -6 4 3 10 19 12 23 12 15 0z m-246 -95 c-9 -8 -79 -35 -79 -30 0 3 15 11
33 19 32 15 54 20 46 11z m-329 -57 c0 -5 -4 -8 -10 -8 -5 0 -10 10 -10 23 0
18 2 19 10 7 5 -8 10 -18 10 -22z m231 15 c-11 -5 -11 -7 0 -14 10 -6 7 -8 -8
-6 -17 1 -19 4 -11 14 6 7 16 13 22 12 6 0 5 -3 -3 -6z m-206 -60 c3 -9 0 -21
-6 -27 -9 -8 -10 -6 -6 7 5 12 3 16 -4 11 -12 -7 -31 15 -23 28 7 11 32 -1 39
-19z m-48 -35 c8 -9 12 -22 8 -28 -10 -17 -22 0 -29 40 -3 19 -3 28 0 20 4 -8
13 -23 21 -32z m-223 -120 c1 -8 9 -23 19 -32 20 -20 22 -42 6 -52 -14 -8 -31
16 -24 34 3 8 0 10 -7 6 -8 -5 -9 -2 -5 9 3 9 2 19 -3 22 -6 4 -10 16 -10 28
0 15 3 18 11 10 6 -6 11 -17 13 -25z m383 16 c-3 -3 -12 -4 -19 -1 -8 3 -5 6
6 6 11 1 17 -2 13 -5z m-302 -14 c3 -5 1 -10 -4 -10 -6 0 -11 5 -11 10 0 6 2
10 4 10 3 0 8 -4 11 -10z m22 -36 c3 -8 1 -20 -6 -27 -13 -13 -16 -10 -25 21
-6 16 -3 22 9 22 8 0 18 -7 22 -16z m-157 -19 c0 -7 7 -16 16 -19 10 -4 14
-15 12 -33 -4 -37 -24 -40 -31 -5 -3 17 -9 42 -13 57 -5 20 -4 26 5 21 6 -4
11 -13 11 -21z m-118 -67 c-9 -9 -12 -7 -12 12 0 19 3 21 12 12 9 -9 9 -15 0
-24z m-526 -176 c16 -82 16 -85 -3 -110 -11 -15 -24 -27 -29 -27 -5 0 -12 45
-15 100 -3 55 -9 114 -14 132 -4 18 -4 49 0 70 l8 38 18 -60 c10 -33 26 -97
35 -143z m562 145 c7 -8 7 -18 2 -27 -7 -12 -12 -11 -29 4 -12 11 -21 23 -21
28 0 13 36 9 48 -5z m-63 -6 c3 -5 1 -12 -5 -16 -5 -3 -10 1 -10 9 0 18 6 21
15 7z m18 -45 c6 -15 -1 -26 -15 -26 -4 0 -8 9 -8 20 0 23 15 27 23 6z m1337
-95 c-17 -9 -114 -22 -106 -13 7 6 71 19 101 21 16 0 17 -1 5 -8z m-215 -10
c-6 -10 -145 -45 -151 -38 -2 2 24 12 58 22 35 9 68 19 73 20 20 6 26 5 20 -4z
m40 -61 c-3 -5 -16 -10 -28 -9 -21 0 -21 1 -2 9 28 12 37 12 30 0z m-345 -24
c0 -2 -7 -7 -16 -10 -8 -3 -12 -2 -9 4 6 10 25 14 25 6z m990 -21 c0 -9 -6
-12 -15 -9 -8 4 -12 10 -9 15 8 14 24 10 24 -6z m-1140 -29 c0 -5 -79 -51
-102 -59 -10 -4 -18 -3 -18 1 0 4 26 19 58 34 61 30 62 30 62 24z m1058 -23
c3 -19 -47 -73 -68 -73 -18 0 -20 20 -5 49 26 51 67 64 73 24z m-983 -2 c-12
-12 -85 -43 -85 -36 0 6 72 44 85 45 6 0 6 -3 0 -9z m1056 -104 c-13 -13 -26
-3 -16 12 3 6 11 8 17 5 6 -4 6 -10 -1 -17z m-1227 -31 c-10 -8 -21 -12 -24
-10 -5 6 21 24 34 24 6 0 1 -6 -10 -14z m1146 -33 c-1 -16 -28 -43 -44 -43
-19 0 -20 4 -4 30 12 19 48 28 48 13z m-1382 -56 c-7 -8 -25 -19 -38 -26 -20
-9 -17 -5 9 18 34 30 57 36 29 8z m1222 1 c0 -24 -36 -68 -57 -68 -16 0 -16
10 -2 47 17 45 59 61 59 21z m253 -6 c-8 -20 -23 -32 -40 -32 -21 0 -15 28 9
44 25 18 40 12 31 -12z m-2359 -160 c8 -15 17 -50 20 -78 3 -32 2 -42 -4 -29
-54 124 -83 193 -87 210 -6 21 45 -52 71 -103z m686 46 c-89 -81 -104 -93 -94
-77 11 20 122 119 132 119 4 0 -13 -19 -38 -42z m84 -22 c-10 -8 -21 -12 -24
-9 -3 2 4 11 14 19 11 7 22 12 25 9 2 -3 -4 -12 -15 -19z m1614 -40 c5 -22
-16 -46 -39 -46 -29 0 -33 20 -8 46 25 27 42 27 47 0z m-218 -13 c0 -48 -72
-112 -91 -82 -9 16 25 84 48 97 21 12 43 5 43 -15z m61 -142 c-7 -12 -16 -21
-21 -21 -14 0 -12 34 2 48 18 18 32 -2 19 -27z m-1779 -58 c-11 -16 -30 -37
-43 -48 l-24 -20 15 20 c18 26 63 75 68 75 2 0 -5 -12 -16 -27z m-82 -8 c0 -4
-84 -111 -103 -130 -24 -25 22 48 57 89 36 43 46 52 46 41z m1730 -72 c0 -44
-11 -60 -36 -55 -24 4 -30 24 -18 56 9 22 54 21 54 -1z m-1759 -116 c-13 -12
-20 -15 -16 -7 14 26 28 41 33 35 3 -3 -5 -16 -17 -28z"/>
<path d="M2158 3073 c7 -3 16 -2 19 1 4 3 -2 6 -13 5 -11 0 -14 -3 -6 -6z"/>
<path d="M2510 3040 c0 -47 20 -54 46 -15 21 32 12 55 -21 55 -23 0 -25 -4
-25 -40z"/>
<path d="M2434 2975 c-19 -14 -19 -14 3 -15 28 0 53 10 53 21 0 14 -34 11 -56
-6z"/>
<path d="M4978 2929 c-22 -8 -58 -60 -58 -83 0 -14 64 -5 76 11 11 16 16 17
46 4 61 -25 92 -25 121 1 14 12 27 34 29 48 3 22 -1 25 -29 28 -25 2 -33 -1
-33 -13 0 -23 -24 -28 -57 -12 -44 22 -66 26 -95 16z"/>
<path d="M3900 2685 l0 -245 55 0 55 0 0 245 0 245 -55 0 -55 0 0 -245z"/>
<path d="M3136 2896 c-115 -43 -172 -154 -146 -280 32 -155 176 -221 348 -160
l42 16 0 54 c0 30 -2 54 -5 54 -3 0 -23 -11 -44 -25 -75 -50 -160 -39 -201 27
-17 27 -20 46 -18 101 3 60 7 71 35 98 41 42 103 50 161 20 22 -11 43 -25 47
-31 15 -24 25 -6 25 46 0 54 -1 55 -37 71 -53 22 -159 27 -207 9z"/>
<path d="M3535 2776 c-116 -52 -130 -229 -24 -309 57 -42 171 -43 232 -3 41
27 77 98 77 151 0 50 -35 122 -73 149 -36 26 -165 34 -212 12z m140 -81 c21
-20 25 -34 25 -84 0 -52 -3 -62 -26 -80 -34 -27 -57 -26 -90 2 -23 20 -26 31
-27 81 -1 52 2 61 27 82 35 31 61 30 91 -1z"/>
<path d="M4181 2770 c-46 -29 -67 -57 -81 -107 -24 -84 12 -167 87 -204 54
-26 164 -31 226 -10 35 12 37 15 37 55 l0 43 -52 -18 c-62 -21 -80 -23 -130
-8 -26 7 -43 19 -53 39 l-16 30 131 0 130 0 0 40 c0 51 -20 98 -55 130 -23 22
-37 25 -108 28 -70 3 -87 0 -116 -18z m157 -77 c21 -29 8 -38 -62 -41 -65 -3
-67 -2 -64 20 6 46 96 61 126 21z"/>
<path d="M4605 2770 c-119 -59 -125 -243 -10 -307 22 -13 51 -23 65 -23 39 0
57 -16 44 -37 -9 -14 -23 -18 -58 -16 -44 1 -46 0 -46 -27 0 -31 14 -40 66
-40 66 0 114 39 114 93 0 18 8 28 30 37 28 11 30 16 30 61 0 27 -2 49 -5 49
-3 0 -20 -10 -36 -22 -46 -34 -113 -32 -145 5 -49 57 -22 157 46 172 26 6 58
-5 133 -43 4 -2 7 19 7 46 0 47 -2 51 -31 61 -53 18 -159 14 -204 -9z"/>
<path d="M4933 2780 c-19 -8 -23 -17 -23 -50 0 -46 -2 -45 65 -25 55 17 117
12 136 -11 6 -8 10 -16 8 -18 -2 -1 -40 -8 -84 -14 -115 -18 -148 -45 -147
-125 1 -45 22 -73 70 -94 36 -15 94 -9 127 13 25 18 35 18 35 -1 0 -12 13 -15
55 -15 l55 0 0 138 c0 151 -6 169 -60 197 -33 17 -199 20 -237 5z m187 -210
c0 -37 -2 -40 -39 -51 -51 -15 -84 1 -79 39 2 21 11 30 38 39 19 7 45 12 58
12 19 1 22 -4 22 -39z"/>
<path d="M5405 2776 c-61 -27 -95 -85 -95 -161 0 -114 69 -178 190 -178 99 0
156 38 180 120 25 84 -11 181 -80 215 -42 22 -151 23 -195 4z m140 -81 c21
-20 25 -34 25 -84 0 -52 -3 -62 -26 -80 -35 -27 -57 -26 -91 3 -24 21 -27 31
-27 81 0 50 3 60 27 81 36 31 62 30 92 -1z"/>
<path d="M1074 2352 c-21 -19 -30 -30 -19 -24 11 5 28 19 39 30 10 12 24 18
31 16 7 -3 16 -1 19 5 15 23 -34 4 -70 -27z"/>
<path d="M960 2270 c-9 -6 -10 -10 -3 -10 6 0 15 5 18 10 8 12 4 12 -15 0z"/>
<path d="M853 2208 c-31 -40 -27 -50 5 -13 12 14 18 25 13 25 -5 0 -13 -6 -18
-12z"/>
<path d="M4726 2141 c-20 -32 -36 -61 -36 -65 0 -3 15 -6 33 -6 26 0 42 10 78
48 80 83 80 82 16 82 l-56 0 -35 -59z"/>
<path d="M4371 1920 l-2 -240 60 0 61 0 0 240 0 240 -59 0 -59 0 -1 -240z"/>
<path d="M5470 2115 l0 -46 58 3 57 3 3 43 3 42 -60 0 -61 0 0 -45z"/>
<path d="M3120 2125 c-87 -39 -134 -117 -134 -220 0 -117 53 -190 162 -221 63
-19 160 -15 227 9 l40 14 3 111 3 112 -111 0 -110 0 0 -39 0 -40 48 -3 47 -3
3 -42 3 -43 -41 0 c-93 0 -150 54 -150 143 0 70 23 112 77 138 53 26 106 21
170 -17 23 -13 46 -24 52 -24 6 0 11 21 11 50 0 46 -3 51 -32 67 -47 24 -220
29 -268 8z"/>
<path d="M710 2025 c-7 -9 -10 -18 -6 -22 3 -3 6 0 6 8 1 10 5 8 15 -5 8 -11
15 -15 15 -9 0 7 -5 15 -10 18 -6 4 -8 11 -5 16 10 15 -1 10 -15 -6z"/>
<path d="M3618 2021 c-42 -14 -87 -50 -105 -84 -21 -41 -21 -133 1 -174 41
-80 163 -113 291 -80 49 13 50 14 53 55 2 23 -1 42 -6 42 -4 0 -30 -7 -56 -16
-86 -30 -186 -4 -186 48 0 16 10 18 125 18 l125 0 0 43 c0 50 -25 103 -61 130
-30 22 -136 32 -181 18z m114 -88 c36 -32 23 -43 -52 -43 -54 0 -70 3 -70 14
0 40 87 61 122 29z"/>
<path d="M4010 2008 c-66 -34 -90 -76 -90 -158 0 -82 24 -124 90 -157 88 -45
208 -19 257 56 18 27 23 48 23 101 0 53 -5 74 -23 101 -30 46 -98 79 -162 79
-33 0 -67 -8 -95 -22z m146 -79 c14 -16 19 -36 19 -79 0 -70 -21 -100 -71
-100 -46 0 -74 38 -74 100 0 62 28 100 74 100 21 0 40 -8 52 -21z"/>
<path d="M4675 2015 c-76 -27 -112 -95 -103 -194 8 -86 62 -137 158 -148 142
-17 238 81 215 218 -18 108 -148 167 -270 124z m121 -73 c20 -13 34 -50 34
-92 0 -42 -14 -79 -34 -92 -18 -13 -60 -9 -83 7 -42 29 -38 149 5 175 20 11
63 13 78 2z"/>
<path d="M5100 2019 c-64 -26 -93 -79 -91 -167 2 -75 20 -115 64 -142 38 -24
110 -26 150 -6 25 14 27 13 27 -4 0 -54 -52 -77 -140 -60 -72 14 -70 15 -70
-29 0 -48 6 -51 123 -51 108 0 151 16 182 70 18 31 20 56 23 213 l4 179 -74
-1 c-40 -1 -95 1 -123 4 -27 2 -61 0 -75 -6z m152 -146 c0 -39 -3 -76 -7 -82
-10 -17 -86 -13 -107 6 -28 25 -25 97 7 129 20 20 33 25 66 22 l41 -3 0 -72z"/>
<path d="M5782 2016 c-81 -27 -112 -73 -112 -169 0 -117 64 -172 200 -172 100
1 120 12 120 70 0 49 -11 56 -43 28 -13 -13 -36 -18 -74 -18 -45 0 -58 4 -74
24 -21 26 -25 86 -8 124 22 48 91 61 147 27 46 -28 52 -26 52 25 0 40 -3 47
-27 57 -43 17 -134 19 -181 4z"/>
<path d="M6125 2024 c-11 -3 -30 -7 -42 -10 -19 -4 -23 -11 -23 -45 0 -41 0
-41 33 -35 76 15 135 18 156 7 33 -18 25 -29 -26 -36 -140 -18 -183 -47 -183
-122 1 -98 85 -140 188 -93 34 16 42 16 42 5 0 -11 14 -15 55 -15 l55 0 0 130
c0 145 -9 177 -57 199 -28 14 -162 24 -198 15z m145 -219 c0 -39 -20 -55 -67
-55 -35 0 -53 16 -53 47 0 28 27 41 83 42 36 1 37 0 37 -34z"/>
<path d="M5470 1850 l0 -170 55 0 55 0 0 170 0 170 -55 0 -55 0 0 -170z"/>
<path d="M630 1881 c0 -8 -8 -10 -22 -6 -21 5 -21 5 -5 -6 20 -11 48 3 34 18
-4 3 -7 1 -7 -6z"/>
<path d="M2110 1849 c-37 -17 -42 -22 -29 -30 25 -13 100 -13 134 1 29 11 29
12 11 26 -11 8 -25 14 -32 14 -7 0 -18 2 -26 5 -7 2 -33 -5 -58 -16z"/>
<path d="M1943 1813 c-22 -8 -14 -23 12 -23 16 0 25 6 25 15 0 15 -14 18 -37
8z"/>
<path d="M526 1777 c3 -10 9 -15 12 -12 3 3 0 11 -7 18 -10 9 -11 8 -5 -6z"/>
<path d="M2260 1781 c0 -11 26 -22 34 -14 12 12 5 23 -14 23 -11 0 -20 -4 -20
-9z"/>
<path d="M1741 1759 c-19 -11 -41 -27 -49 -35 -44 -44 68 -23 117 22 l36 33
-35 1 c-19 0 -50 -9 -69 -21z"/>
<path d="M556 1748 c3 -4 9 -8 15 -8 5 0 9 4 9 8 0 5 -7 9 -15 9 -8 0 -12 -4
-9 -9z"/>
<path d="M2140 1710 c0 -5 4 -10 9 -10 6 0 13 5 16 10 3 6 -1 10 -9 10 -9 0
-16 -4 -16 -10z"/>
<path d="M502 1680 c-7 -11 -12 -25 -12 -32 0 -7 7 0 15 16 18 33 15 45 -3 16z"/>
<path d="M1891 1674 c-28 -20 -27 -34 2 -34 22 0 47 16 47 31 0 15 -29 17 -49
3z"/>
<path d="M523 1645 c-3 -9 -3 -18 -1 -21 3 -3 8 4 11 16 6 23 -1 27 -10 5z"/>
<path d="M466 1618 c4 -5 12 -7 20 -4 17 6 18 -6 3 -21 -7 -7 -6 -12 5 -16 10
-4 13 -1 9 9 -3 9 1 14 13 14 18 1 18 1 -1 12 -24 14 -56 18 -49 6z"/>
<path d="M2024 1575 c-9 -23 3 -45 26 -45 25 0 37 25 20 45 -16 19 -39 19 -46
0z"/>
<path d="M2241 1576 c-10 -12 -6 -26 10 -26 11 0 19 29 10 35 -5 2 -14 -1 -20
-9z"/>
<path d="M1668 1558 c-21 -21 -21 -23 -5 -26 21 -4 47 15 47 34 0 20 -17 17
-42 -8z"/>
<path d="M462 1550 c0 -14 2 -19 5 -12 2 6 2 18 0 25 -3 6 -5 1 -5 -13z"/>
<path d="M1853 1513 c-12 -10 -29 -31 -37 -47 -21 -41 -6 -56 55 -56 45 0 51
3 69 33 11 17 19 43 18 57 -3 22 -9 25 -43 28 -26 1 -48 -4 -62 -15z"/>
<path d="M2100 1495 c0 -8 5 -15 10 -15 6 0 10 7 10 15 0 8 -4 15 -10 15 -5 0
-10 -7 -10 -15z"/>
<path d="M1540 1475 c-7 -9 -10 -18 -7 -21 10 -11 37 5 37 21 0 19 -14 19 -30
0z"/>
<path d="M1385 1460 c-3 -5 3 -10 14 -10 12 0 21 5 21 10 0 6 -6 10 -14 10 -8
0 -18 -4 -21 -10z"/>
<path d="M4308 1380 l-37 -60 37 0 c32 0 45 8 90 53 29 29 52 56 52 60 0 4
-24 7 -52 7 l-53 0 -37 -60z"/>
<path d="M3530 1365 l0 -45 61 0 60 0 -3 43 -3 42 -57 3 -58 3 0 -46z"/>
<path d="M3980 1336 l0 -74 -72 5 c-65 4 -77 2 -107 -19 -153 -104 -63 -386
104 -325 22 8 48 18 58 22 12 5 17 3 17 -9 0 -14 9 -17 53 -14 l52 3 0 240 0
240 -52 3 -53 3 0 -75z m-26 -146 c25 -9 26 -13 26 -88 0 -75 -1 -79 -25 -90
-67 -31 -115 2 -115 76 0 52 19 88 54 102 28 12 31 12 60 0z"/>
<path d="M4900 1365 l0 -45 60 0 60 0 0 45 0 45 -60 0 -60 0 0 -45z"/>
<path d="M1228 1369 c-18 -10 -25 -39 -9 -39 12 0 33 28 29 39 -2 6 -9 6 -20
0z"/>
<path d="M1463 1365 c-30 -13 -53 -41 -53 -65 0 -14 49 11 74 38 27 30 17 43
-21 27z"/>
<path d="M3010 1149 l0 -232 133 5 c123 4 136 6 186 34 77 41 104 88 109 185
9 170 -82 239 -315 239 l-113 0 0 -231z m244 126 c45 -21 66 -62 66 -128 0
-87 -55 -137 -150 -137 l-40 0 0 140 0 140 46 0 c25 0 60 -7 78 -15z"/>
<path d="M1685 1350 c3 -5 10 -10 16 -10 5 0 9 5 9 10 0 6 -7 10 -16 10 -8 0
-12 -4 -9 -10z"/>
<path d="M2190 1341 c-22 -42 -7 -71 36 -71 23 0 29 48 9 70 -23 25 -32 25
-45 1z"/>
<path d="M4620 1315 c0 -38 -3 -45 -20 -45 -17 0 -20 -7 -20 -40 0 -33 4 -40
19 -40 17 0 19 -10 23 -109 3 -90 7 -113 22 -130 26 -29 89 -44 147 -36 l49 7
0 39 0 39 -38 -6 c-61 -10 -73 10 -70 110 l3 81 53 3 53 3 -3 37 -3 37 -52 3
-53 3 0 45 0 44 -55 0 -55 0 0 -45z"/>
<path d="M1315 1330 c-3 -5 -1 -10 4 -10 6 0 11 5 11 10 0 6 -2 10 -4 10 -3 0
-8 -4 -11 -10z"/>
<path d="M1947 1284 c-11 -11 -8 -62 3 -69 6 -3 19 -3 31 0 28 9 23 69 -6 73
-12 2 -24 0 -28 -4z"/>
<path d="M1532 1263 c2 -10 13 -19 26 -21 17 -3 22 2 22 17 0 16 -6 21 -26 21
-19 0 -25 -5 -22 -17z"/>
<path d="M1754 1265 c-3 -8 -3 -19 1 -25 11 -17 35 -11 35 9 0 23 -29 36 -36
16z"/>
<path d="M3534 1257 c-2 -7 -3 -85 -2 -172 l3 -160 53 -3 52 -3 0 175 0 176
-50 0 c-32 0 -52 -5 -56 -13z"/>
<path d="M4223 1263 c-20 -4 -23 -11 -23 -50 0 -38 3 -44 17 -39 50 20 107 26
144 16 60 -17 50 -37 -23 -45 -75 -8 -142 -35 -157 -63 -6 -12 -11 -38 -11
-60 0 -78 73 -125 157 -103 23 6 45 16 48 21 9 15 25 12 25 -5 0 -12 13 -15
55 -15 l55 0 0 138 c0 151 -6 169 -60 197 -28 14 -169 19 -227 8z m177 -212
c0 -34 -4 -40 -31 -51 -38 -16 -83 -3 -87 25 -3 30 11 46 49 55 65 15 69 14
69 -29z"/>
<path d="M4910 1095 l0 -176 53 3 52 3 0 170 0 170 -52 3 -53 3 0 -176z"/>
<path d="M5195 1254 c-76 -39 -98 -82 -93 -177 4 -66 6 -71 44 -107 55 -51
130 -68 213 -48 l56 13 3 53 c2 28 0 52 -3 52 -3 0 -20 -10 -36 -22 -41 -30
-110 -31 -139 -2 -11 11 -23 37 -27 57 -16 103 80 157 169 96 14 -11 29 -19
32 -19 3 0 6 22 6 49 0 46 -2 50 -31 60 -47 16 -159 14 -194 -5z"/>
<path d="M5523 1263 c-20 -4 -23 -11 -23 -50 0 -38 3 -44 17 -39 75 29 167 27
183 -4 8 -16 2 -18 -58 -25 -115 -11 -172 -52 -172 -121 0 -36 24 -78 56 -94
36 -20 106 -17 139 4 25 16 28 16 39 1 9 -12 24 -15 61 -13 l50 3 3 116 c5
198 -21 230 -183 228 -49 -1 -100 -4 -112 -6z m175 -215 c-3 -35 -7 -43 -31
-51 -37 -12 -74 -2 -82 24 -9 26 18 56 54 62 63 10 62 10 59 -35z"/>
<path d="M1062 1179 c-18 -17 -32 -35 -32 -39 0 -5 -3 -15 -6 -24 -13 -33 27
-15 56 26 49 67 38 91 -18 37z"/>
<path d="M1302 1168 c-14 -14 -16 -58 -2 -58 14 0 43 48 35 60 -8 13 -18 13
-33 -2z"/>
<path d="M1422 1134 c4 -21 22 -23 26 -1 2 10 -3 17 -13 17 -10 0 -15 -6 -13
-16z"/>
<path d="M1659 1110 c-8 -5 -22 -27 -29 -50 -12 -36 -12 -43 3 -57 14 -14 22
-15 56 -4 47 14 69 33 77 68 5 19 2 30 -11 40 -21 15 -72 17 -96 3z"/>
<path d="M1405 1061 c-3 -5 -1 -12 5 -16 5 -3 10 1 10 9 0 18 -6 21 -15 7z"/>
<path d="M1243 1034 c-8 -20 8 -36 26 -25 15 10 8 41 -9 41 -6 0 -13 -7 -17
-16z"/>
<path d="M1450 901 c0 -26 21 -61 36 -61 16 0 44 23 44 35 0 22 -37 55 -60 55
-15 0 -20 -7 -20 -29z"/>
<path d="M3780 775 c-10 -12 -10 -15 3 -15 8 0 20 7 27 15 10 12 10 15 -3 15
-8 0 -20 -7 -27 -15z"/>
<path d="M4971 776 c-10 -12 -8 -15 19 -14 17 1 29 6 27 12 -6 17 -33 18 -46
2z"/>
<path d="M3250 715 l0 -65 34 0 c38 0 66 21 66 50 0 27 -29 52 -51 45 -14 -5
-19 -1 -19 14 0 12 -7 21 -15 21 -12 0 -15 -14 -15 -65z m65 -15 c0 -16 -6
-26 -17 -28 -14 -3 -18 3 -18 28 0 25 4 31 18 28 11 -2 17 -12 17 -28z"/>
<path d="M3940 770 c0 -5 7 -10 15 -10 8 0 15 5 15 10 0 6 -7 10 -15 10 -8 0
-15 -4 -15 -10z"/>
<path d="M4226 767 c3 -8 -8 -16 -28 -22 -26 -8 -34 -16 -36 -38 -5 -38 14
-57 54 -57 l34 0 0 65 c0 50 -3 65 -15 65 -8 0 -12 -6 -9 -13z m-1 -68 c0 -15
-7 -25 -17 -27 -13 -3 -18 3 -18 21 0 13 3 27 7 31 13 12 28 -1 28 -25z"/>
<path d="M4890 770 c0 -5 9 -10 20 -10 11 0 20 5 20 10 0 6 -9 10 -20 10 -11
0 -20 -4 -20 -10z"/>
<path d="M5270 770 c0 -5 7 -10 15 -10 8 0 15 5 15 10 0 6 -7 10 -15 10 -8 0
-15 -4 -15 -10z"/>
<path d="M3040 710 l0 -60 38 0 c21 0 43 5 49 11 8 8 13 8 17 0 4 -6 25 -11
47 -11 38 0 39 1 39 34 0 19 -7 42 -16 51 -18 18 -65 17 -71 -1 -2 -7 5 -10
20 -7 14 3 28 0 31 -6 4 -7 -1 -11 -14 -11 -11 0 -27 -8 -36 -18 -10 -13 -25
-17 -45 -14 -27 4 -29 7 -29 48 0 32 -4 44 -15 44 -12 0 -15 -13 -15 -60z
m155 -30 c-3 -5 -10 -10 -16 -10 -5 0 -9 5 -9 10 0 6 7 10 16 10 8 0 12 -4 9
-10z"/>
<path d="M3667 758 c-6 -18 4 -81 16 -95 11 -15 47 -17 47 -3 0 6 -7 10 -15
10 -10 0 -15 10 -15 30 0 20 5 30 15 30 8 0 15 5 15 10 0 6 -7 10 -15 10 -8 0
-15 5 -15 10 0 14 -27 12 -33 -2z"/>
<path d="M4455 754 c-42 -42 8 -115 68 -100 22 5 27 12 27 36 0 25 -4 30 -25
30 -26 0 -35 -24 -12 -34 6 -3 1 -4 -13 -3 -28 2 -38 30 -19 53 9 11 22 14 41
10 21 -4 28 -2 28 9 0 21 -74 20 -95 -1z"/>
<path d="M5592 713 c2 -34 8 -58 16 -61 7 -2 12 6 12 22 0 21 5 26 25 26 20 0
25 -5 25 -25 0 -16 6 -25 15 -25 12 0 15 13 15 60 0 47 -3 60 -15 60 -8 0 -15
-9 -15 -20 0 -15 -7 -20 -25 -20 -18 0 -25 5 -25 20 0 11 -7 20 -15 20 -13 0
-15 -11 -13 -57z"/>
<path d="M5730 710 l0 -60 45 0 c33 0 45 4 45 15 0 10 -10 15 -30 15 -16 0
-30 5 -30 10 0 6 11 10 25 10 16 0 25 6 25 15 0 9 -9 15 -25 15 -14 0 -25 5
-25 10 0 6 14 10 30 10 17 0 30 5 30 10 0 6 -20 10 -45 10 l-45 0 0 -60z"/>
<path d="M5840 710 c0 -53 2 -60 20 -60 15 0 20 7 20 25 0 20 5 25 25 25 16 0
25 6 25 15 0 9 -9 15 -25 15 -14 0 -25 5 -25 10 0 6 11 10 25 10 14 0 25 5 25
10 0 6 -20 10 -45 10 l-45 0 0 -60z"/>
<path d="M5950 710 l0 -60 45 0 c33 0 45 4 45 15 0 10 -10 15 -30 15 -16 0
-30 5 -30 10 0 6 11 10 25 10 16 0 25 6 25 15 0 9 -9 15 -25 15 -14 0 -25 5
-25 10 0 6 14 10 30 10 17 0 30 5 30 10 0 6 -20 10 -45 10 l-45 0 0 -60z"/>
<path d="M6072 758 c-22 -22 -14 -48 18 -55 44 -8 47 -23 5 -23 -43 0 -44 -23
-2 -28 67 -8 92 54 30 72 -45 12 -42 30 3 23 25 -4 34 -2 31 6 -5 17 -69 21
-85 5z"/>
<path d="M6170 760 c0 -5 9 -10 20 -10 17 0 20 -7 20 -50 0 -38 4 -50 15 -50
11 0 15 12 15 50 0 43 3 50 20 50 11 0 20 5 20 10 0 6 -25 10 -55 10 -30 0
-55 -4 -55 -10z"/>
<path d="M6302 758 c-18 -18 -14 -73 6 -91 40 -37 102 -9 102 46 0 14 -7 33
-16 41 -18 19 -75 21 -92 4z m66 -17 c8 -4 12 -19 10 -32 -4 -34 -52 -34 -56
0 -3 20 11 41 28 41 3 0 11 -4 18 -9z"/>
<path d="M3376 734 c-42 -42 4 -101 59 -76 44 20 24 92 -25 92 -10 0 -26 -7
-34 -16z m49 -34 c0 -13 -6 -25 -12 -27 -16 -6 -27 21 -19 43 9 23 31 11 31
-16z"/>
<path d="M3480 700 c0 -38 4 -50 15 -50 11 0 15 11 15 40 0 34 3 40 22 40 30
0 14 13 -22 17 -30 3 -30 2 -30 -47z"/>
<path d="M3567 743 c-14 -13 -6 -20 18 -15 15 2 25 0 25 -7 0 -6 -8 -11 -19
-11 -10 0 -24 -7 -31 -15 -19 -22 5 -45 46 -45 33 0 34 1 34 44 0 31 -5 46
-16 50 -21 8 -49 8 -57 -1z m48 -63 c-3 -5 -13 -10 -21 -10 -8 0 -14 5 -14 10
0 6 9 10 21 10 11 0 17 -4 14 -10z"/>
<path d="M3756 737 c-22 -16 -18 -65 5 -80 47 -29 101 32 64 73 -21 23 -44 25
-69 7z m49 -38 c0 -15 -7 -25 -17 -27 -13 -3 -18 3 -18 21 0 13 3 27 7 31 13
12 28 -1 28 -25z"/>
<path d="M3860 700 c0 -38 4 -50 15 -50 11 0 15 11 15 40 0 34 3 40 22 40 30
0 14 13 -22 17 -30 3 -30 2 -30 -47z"/>
<path d="M3940 700 c0 -38 4 -50 15 -50 11 0 15 12 15 50 0 38 -4 50 -15 50
-11 0 -15 -12 -15 -50z"/>
<path d="M4006 737 c-22 -16 -18 -65 5 -80 47 -29 101 32 64 73 -21 23 -44 25
-69 7z m49 -38 c0 -15 -7 -25 -17 -27 -13 -3 -18 3 -18 21 0 13 3 27 7 31 13
12 28 -1 28 -25z"/>
<path d="M4290 730 c-25 -25 -25 -42 -1 -64 22 -20 72 -18 79 2 3 9 -3 11 -21
6 -14 -3 -32 -2 -39 2 -9 6 -2 10 21 14 40 6 49 21 26 44 -22 21 -41 20 -65
-4z m45 -10 c3 -5 -3 -10 -15 -10 -12 0 -18 5 -15 10 3 6 10 10 15 10 5 0 12
-4 15 -10z"/>
<path d="M4586 734 c-40 -40 0 -95 59 -80 32 8 25 25 -9 19 -13 -3 -27 0 -30
6 -5 7 4 11 23 11 37 0 44 11 25 38 -18 26 -46 28 -68 6z m49 -14 c3 -5 -3
-10 -15 -10 -12 0 -18 5 -15 10 3 6 10 10 15 10 5 0 12 -4 15 -10z"/>
<path d="M4696 734 c-33 -33 -10 -84 38 -84 20 0 46 28 46 50 0 24 -26 50 -50
50 -10 0 -26 -7 -34 -16z m49 -34 c0 -13 -6 -25 -12 -27 -16 -6 -27 21 -19 43
9 23 31 11 31 -16z"/>
<path d="M4810 732 c-44 -35 1 -99 55 -78 25 9 17 25 -12 23 -24 -2 -28 2 -28
23 0 21 4 25 28 23 29 -2 37 11 11 21 -24 9 -30 8 -54 -12z"/>
<path d="M4897 744 c-4 -4 -7 -27 -7 -51 0 -37 3 -43 21 -43 18 0 20 5 17 47
-3 44 -15 62 -31 47z"/>
<path d="M4960 730 c-24 -24 -24 -29 -4 -58 12 -17 24 -22 47 -20 17 2 32 9
35 15 2 9 -5 11 -26 7 -17 -4 -32 -1 -36 5 -5 7 4 11 24 11 38 0 52 27 25 46
-26 19 -42 17 -65 -6z m50 -10 c0 -5 -9 -10 -21 -10 -11 0 -17 5 -14 10 3 6
13 10 21 10 8 0 14 -4 14 -10z"/>
<path d="M5060 699 c0 -37 4 -49 15 -49 11 0 15 11 15 40 0 29 4 40 15 40 11
0 15 -11 15 -40 0 -29 4 -40 15 -40 11 0 15 12 15 45 0 25 -3 45 -7 46 -5 1
-25 3 -45 4 l-38 4 0 -50z"/>
<path d="M5200 743 c-34 -14 -41 -66 -11 -83 27 -14 61 -13 61 3 0 8 -10 13
-22 13 -18 -1 -23 5 -23 24 0 20 5 25 23 24 12 0 21 4 19 10 -4 13 -26 17 -47
9z"/>
<path d="M5277 743 c-4 -3 -7 -26 -7 -50 0 -32 4 -43 15 -43 11 0 15 12 15 50
0 46 -7 60 -23 43z"/>
<path d="M5337 743 c-14 -13 -6 -20 18 -15 15 2 25 0 25 -7 0 -6 -8 -11 -19
-11 -10 0 -24 -7 -31 -15 -19 -22 5 -45 46 -45 33 0 34 1 34 44 0 31 -5 46
-16 50 -21 8 -49 8 -57 -1z m43 -63 c0 -5 -7 -10 -15 -10 -8 0 -15 5 -15 10 0
6 7 10 15 10 8 0 15 -4 15 -10z"/>
<path d="M5447 735 c-20 -19 -12 -45 13 -45 11 0 22 -5 26 -12 5 -8 -2 -9 -25
-5 -24 5 -31 3 -29 -6 7 -18 63 -21 78 -3 10 13 10 19 0 31 -7 8 -19 15 -26
15 -8 0 -14 5 -14 11 0 7 9 9 21 6 13 -3 19 -1 16 6 -6 19 -43 20 -60 2z"/>
<path d="M4640 575 c0 -8 7 -15 15 -15 8 0 15 7 15 15 0 8 -7 15 -15 15 -8 0
-15 -7 -15 -15z"/>
<path d="M5020 571 c0 -14 -8 -21 -27 -23 -19 -2 -30 -11 -37 -30 -13 -37 6
-58 55 -58 l39 0 0 65 c0 51 -3 65 -15 65 -8 0 -15 -9 -15 -19z m-2 -72 c-3
-26 -18 -29 -32 -6 -7 10 -5 21 4 32 17 20 33 6 28 -26z"/>
<path d="M5477 583 c-4 -3 -7 -33 -7 -65 0 -51 2 -58 20 -58 18 0 20 7 20 65
0 47 -4 65 -13 65 -8 0 -17 -3 -20 -7z"/>
<path d="M3030 571 c0 -6 5 -13 10 -16 6 -3 10 -22 10 -41 0 -19 -4 -34 -10
-34 -5 0 -10 -4 -10 -10 0 -5 16 -10 35 -10 34 0 46 12 25 25 -5 3 -10 19 -10
36 0 16 5 29 10 29 6 0 10 7 10 15 0 10 -11 15 -35 15 -19 0 -35 -4 -35 -9z"/>
<path d="M3130 520 c0 -47 3 -60 15 -60 9 0 15 9 15 25 0 20 5 25 25 25 36 0
33 30 -2 31 l-28 1 29 7 c49 10 44 31 -8 31 l-46 0 0 -60z"/>
<path d="M3240 520 c0 -47 3 -60 15 -60 9 0 15 9 15 22 l0 21 23 -21 c13 -12
32 -22 42 -22 17 0 17 1 0 20 -15 17 -16 24 -6 46 16 36 -1 54 -50 54 l-39 0
0 -60z m60 20 c0 -5 -7 -10 -15 -10 -8 0 -15 5 -15 10 0 6 7 10 15 10 8 0 15
-4 15 -10z"/>
<path d="M3376 567 c-27 -20 -16 -48 23 -62 39 -13 26 -31 -15 -21 -17 5 -24
2 -24 -9 0 -11 11 -15 38 -15 70 0 86 48 25 73 l-38 15 38 1 c26 1 37 5 35 14
-6 17 -60 20 -82 4z"/>
<path d="M4316 565 c-24 -24 -21 -82 4 -95 26 -14 72 -9 78 8 3 9 -3 11 -20 7
-31 -7 -50 7 -46 36 2 19 10 25 36 27 41 4 38 26 -5 30 -18 2 -37 -3 -47 -13z"/>
<path d="M5251 566 c-20 -24 -9 -48 28 -61 39 -13 26 -31 -15 -21 -17 5 -24 2
-24 -9 0 -11 11 -15 39 -15 69 0 81 47 19 74 l-33 14 33 1 c22 1 32 5 30 14
-7 18 -63 21 -77 3z"/>
<path d="M3542 538 c-7 -7 -12 -21 -12 -33 0 -12 5 -26 12 -33 15 -15 68 -16
68 -2 0 6 -6 10 -12 9 -28 -3 -38 2 -38 19 0 24 19 42 36 35 8 -3 14 0 14 6 0
15 -53 14 -68 -1z"/>
<path d="M3635 540 c-4 -7 2 -9 18 -5 14 4 28 2 31 -3 3 -6 -8 -13 -24 -17
-25 -5 -30 -11 -28 -28 2 -18 11 -23 46 -25 41 -3 42 -2 42 27 0 49 -9 61 -45
61 -19 0 -37 -5 -40 -10z m53 -51 c-2 -6 -8 -10 -13 -10 -5 0 -11 4 -13 10 -2
6 4 11 13 11 9 0 15 -5 13 -11z"/>
<path d="M3740 505 c0 -32 4 -45 14 -45 10 0 16 13 18 37 4 52 28 56 28 4 0
-54 27 -58 32 -4 4 52 28 56 28 4 0 -30 4 -41 16 -41 12 0 14 9 12 43 l-3 42
-72 3 -73 2 0 -45z"/>
<path d="M3920 486 c0 -41 4 -66 11 -66 6 0 13 9 16 20 3 11 13 20 23 20 25 0
42 25 38 57 -3 25 -7 28 -45 31 l-43 3 0 -65z m58 22 c2 -16 -3 -28 -12 -31
-13 -5 -16 1 -16 29 0 41 23 43 28 2z"/>
<path d="M4032 508 c3 -43 3 -43 46 -46 l42 -3 0 45 c0 33 -4 46 -14 46 -10 0
-16 -13 -18 -37 -2 -21 -7 -38 -13 -38 -5 0 -11 17 -13 38 -2 25 -8 37 -18 37
-12 0 -14 -10 -12 -42z"/>
<path d="M4149 534 c-11 -14 -10 -18 6 -30 10 -8 26 -14 34 -14 11 0 12 -3 4
-11 -8 -8 -17 -8 -33 1 -18 10 -21 9 -18 -2 6 -17 55 -23 74 -7 20 17 17 28
-11 41 -30 13 -34 33 -5 25 11 -3 20 -1 20 4 0 15 -57 10 -71 -7z"/>
<path d="M4420 540 c0 -6 10 -8 24 -4 13 3 27 1 30 -5 4 -7 -1 -11 -13 -11
-26 0 -52 -26 -45 -45 4 -10 20 -15 48 -15 35 0 42 3 43 21 1 11 -2 32 -7 45
-8 19 -17 24 -45 24 -19 0 -35 -5 -35 -10z m50 -55 c-7 -8 -16 -12 -21 -9 -13
8 -1 24 18 24 13 0 13 -3 3 -15z"/>
<path d="M4533 532 c10 -10 17 -22 17 -27 0 -5 -7 -17 -17 -27 -15 -17 -15
-18 5 -18 11 0 22 6 25 13 4 10 7 10 18 0 7 -7 19 -13 26 -13 11 0 10 5 -2 23
-13 21 -13 25 1 45 12 18 12 22 2 22 -8 0 -20 -6 -27 -12 -11 -10 -14 -10 -18
0 -3 6 -14 12 -25 12 -20 0 -20 -1 -5 -18z"/>
<path d="M4640 505 c0 -33 4 -45 15 -45 11 0 15 12 15 45 0 33 -4 45 -15 45
-11 0 -15 -12 -15 -45z"/>
<path d="M4700 540 c0 -7 7 -9 16 -6 31 12 36 -7 5 -20 -48 -20 -39 -48 17
-52 l43 -3 -3 43 c-3 42 -4 43 -40 46 -24 2 -38 -1 -38 -8z m48 -51 c-2 -6 -8
-10 -13 -10 -5 0 -11 4 -13 10 -2 6 4 11 13 11 9 0 15 -5 13 -11z"/>
<path d="M4807 543 c-14 -14 -6 -34 18 -45 13 -6 22 -15 19 -19 -3 -5 -14 -4
-25 1 -15 9 -19 7 -19 -5 0 -13 9 -16 38 -13 29 2 38 7 40 25 3 17 -3 24 -22
29 -14 3 -23 10 -20 15 3 6 14 7 25 4 11 -4 19 -2 19 4 0 12 -62 15 -73 4z"/>
<path d="M5082 538 c-7 -7 -12 -21 -12 -33 0 -29 19 -45 52 -45 36 0 56 36 39
69 -13 23 -59 29 -79 9z m52 -46 c-20 -31 -44 -3 -29 35 5 15 7 15 23 0 13
-14 14 -21 6 -35z"/>
<path d="M5362 508 c3 -43 3 -43 46 -46 l42 -3 0 45 c0 33 -4 46 -14 46 -10 0
-16 -13 -18 -37 -2 -21 -7 -38 -13 -38 -5 0 -11 17 -13 38 -2 25 -8 37 -18 37
-12 0 -14 -10 -12 -42z"/>
</g>
</svg>
