<svg width="171" height="339" viewBox="0 0 171 339" fill="none" xmlns="http://www.w3.org/2000/svg">
<path d="M91.125 129C88.9583 129 88.3958 127.625 89.4375 124.875L120.562 43.1875C121.521 40.6458 122.896 39.375 124.688 39.375H133.438C135.229 39.375 136.604 40.6458 137.562 43.1875L168.688 124.875C169.729 127.625 169.167 129 167 129H160.625C158.417 129 156.917 127.979 156.125 125.938L148.312 105.25H109.812L102 125.938C101.208 127.979 99.7083 129 97.5 129H91.125ZM113.75 95H144.375L134.812 70C133.938 67.6667 133.062 65.0833 132.188 62.25C131.354 59.4167 130.354 55.3958 129.188 50.1875H128.938C127.771 55.3958 126.75 59.4167 125.875 62.25C125.042 65.0833 124.188 67.6667 123.312 70L113.75 95Z" fill="white"/>
<path d="M96.5 284C94.2083 284 93.0625 283.062 93.0625 281.188V278.188C93.0625 276.188 93.6875 274.333 94.9375 272.625L144.062 204.75V204.5C142.396 204.583 140.729 204.625 139.062 204.625H98.5C96.2083 204.625 95.0625 203.688 95.0625 201.812V197.188C95.0625 195.312 96.2083 194.375 98.5 194.375H156.125C158.417 194.375 159.562 195.312 159.562 197.188V199.125C159.562 200.5 159.146 201.771 158.312 202.938L108.562 273.625V273.875C109.688 273.792 111.354 273.75 113.562 273.75H157.5C159.792 273.75 160.938 274.688 160.938 276.562V281.188C160.938 283.062 159.792 284 157.5 284H96.5Z" fill="white"/>
<path d="M29 294.024C29 296.509 31.0147 298.524 33.5 298.524C35.9853 298.524 38 296.509 38 294.024H29ZM36.682 26.7944C34.9246 25.037 32.0754 25.037 30.318 26.7944L1.68019 55.4322C-0.0771637 57.1896 -0.0771637 60.0388 1.68019 61.7962C3.43755 63.5535 6.2868 63.5535 8.04416 61.7962L33.5 36.3403L58.9558 61.7962C60.7132 63.5535 63.5624 63.5535 65.3198 61.7962C67.0772 60.0388 67.0772 57.1896 65.3198 55.4322L36.682 26.7944ZM38 294.024L38 29.9763H29L29 294.024H38Z" fill="white"/>
</svg>
