<svg width="171" height="339" viewBox="0 0 171 339" fill="none" xmlns="http://www.w3.org/2000/svg">
<path d="M38.5 30C38.5 27.5147 36.4853 25.5 34 25.5C31.5147 25.5 29.5 27.5147 29.5 30H38.5ZM30.818 297.229C32.5754 298.987 35.4246 298.987 37.182 297.229L65.8198 268.592C67.5772 266.834 67.5772 263.985 65.8198 262.228C64.0624 260.47 61.2132 260.47 59.4558 262.228L34 287.683L8.54416 262.228C6.7868 260.47 3.93755 260.47 2.18019 262.228C0.422836 263.985 0.422836 266.834 2.18019 268.592L30.818 297.229ZM29.5 30L29.5 294.047H38.5L38.5 30H29.5Z" fill="white"/>
<path d="M92.5 129C90.2083 129 89.0625 128.062 89.0625 126.188V123.188C89.0625 121.188 89.6875 119.333 90.9375 117.625L140.062 49.75V49.5C138.396 49.5833 136.729 49.625 135.062 49.625H94.5C92.2083 49.625 91.0625 48.6875 91.0625 46.8125V42.1875C91.0625 40.3125 92.2083 39.375 94.5 39.375H152.125C154.417 39.375 155.562 40.3125 155.562 42.1875V44.125C155.562 45.5 155.146 46.7708 154.312 47.9375L104.562 118.625V118.875C105.688 118.792 107.354 118.75 109.562 118.75H153.5C155.792 118.75 156.938 119.688 156.938 121.562V126.188C156.938 128.062 155.792 129 153.5 129H92.5Z" fill="white"/>
<path d="M91.125 284C88.9583 284 88.3958 282.625 89.4375 279.875L120.562 198.188C121.521 195.646 122.896 194.375 124.688 194.375H133.438C135.229 194.375 136.604 195.646 137.562 198.188L168.688 279.875C169.729 282.625 169.167 284 167 284H160.625C158.417 284 156.917 282.979 156.125 280.938L148.312 260.25H109.812L102 280.938C101.208 282.979 99.7083 284 97.5 284H91.125ZM113.75 250H144.375L134.812 225C133.938 222.667 133.062 220.083 132.188 217.25C131.354 214.417 130.354 210.396 129.188 205.188H128.938C127.771 210.396 126.75 214.417 125.875 217.25C125.042 220.083 124.188 222.667 123.312 225L113.75 250Z" fill="white"/>
</svg>
