<svg width="58" height="64" viewBox="0 0 58 64" fill="none" xmlns="http://www.w3.org/2000/svg">
<path d="M43.488 37.552C44.4267 38.7467 45.7067 40.2827 47.328 42.16C49.0347 43.952 50.6133 45.872 52.064 47.92C53.6 49.8827 54.8373 51.8453 55.776 53.808C56.7147 55.7707 56.9707 57.4773 56.544 58.928C55.8613 61.1467 54.5813 62.4267 52.704 62.768C50.8267 63.1093 48.864 62.768 46.816 61.744C45.3653 61.0613 43.7013 59.8667 41.824 58.16C39.9467 56.4533 38.112 54.6613 36.32 52.784C34.6133 50.9067 33.0773 49.1573 31.712 47.536C30.3467 45.8293 29.408 44.6347 28.896 43.952C28.896 43.8667 28.8533 43.824 28.768 43.824C28.768 43.824 28.768 43.7813 28.768 43.696C28.1707 44.3787 27.5733 45.1467 26.976 46C26.3787 46.768 25.7387 47.536 25.056 48.304C24.2027 49.328 23.2213 50.5653 22.112 52.016C21.088 53.3813 19.936 54.7467 18.656 56.112C17.4613 57.4773 16.1813 58.7573 14.816 59.952C13.536 61.0613 12.256 61.872 10.976 62.384C9.26933 63.0667 7.60533 62.9387 5.984 62C4.448 61.1467 3.46667 59.952 3.04 58.416C2.528 56.624 2.656 54.7467 3.424 52.784C4.192 50.8213 5.216 48.944 6.496 47.152C7.776 45.2747 9.14133 43.4827 10.592 41.776C12.128 40.0693 13.3653 38.576 14.304 37.296C15.2427 36.1013 16.0533 35.0773 16.736 34.224C17.504 33.2853 18.2293 32.3893 18.912 31.536C17.7173 30.256 16.4373 28.848 15.072 27.312C13.7067 25.6907 11.7867 23.6 9.312 21.04C8.45867 20.1013 7.52 19.0773 6.496 17.968C5.472 16.7733 4.53333 15.536 3.68 14.256C2.82667 12.976 2.144 11.6533 1.632 10.288C1.12 8.92266 0.992 7.51466 1.248 6.064C1.504 4.784 2.05867 3.76 2.912 2.992C3.76533 2.13866 4.78933 1.584 5.984 1.328C7.17867 0.986664 8.416 0.943998 9.696 1.2C10.976 1.456 12.1707 1.968 13.28 2.736C15.4987 4.35733 17.5893 6.36266 19.552 8.752C21.5147 11.1413 23.4347 13.4027 25.312 15.536C25.9093 16.304 26.464 17.0293 26.976 17.712C27.5733 18.3093 28.128 18.9067 28.64 19.504C29.0667 18.8213 29.5787 18.1387 30.176 17.456C30.8587 16.7733 31.5413 15.9627 32.224 15.024C33.9307 12.976 35.6373 10.8427 37.344 8.624C39.136 6.40533 41.0987 4.48533 43.232 2.864C44.3413 2.01066 45.4933 1.49866 46.688 1.328C47.968 1.072 49.1627 1.11466 50.272 1.456C51.3813 1.712 52.3627 2.224 53.216 2.992C54.0693 3.76 54.624 4.69866 54.88 5.808C55.2213 7.17333 55.1787 8.53867 54.752 9.904C54.4107 11.2693 53.8133 12.592 52.96 13.872C52.192 15.152 51.296 16.3893 50.272 17.584C49.3333 18.6933 48.4373 19.7173 47.584 20.656C45.6213 22.7893 43.9147 24.7093 42.464 26.416C41.0133 28.1227 39.648 29.744 38.368 31.28C39.136 32.1333 39.904 33.072 40.672 34.096C41.5253 35.0347 42.464 36.1867 43.488 37.552Z" fill="black"/>
</svg>
